<svg width="22" height="21" viewBox="0 0 22 21" fill="none" xmlns="http://www.w3.org/2000/svg">
<path d="M17.8018 11.8205C19.1734 14.2172 18.3423 17.272 15.9456 18.6436C13.5489 20.0151 10.4941 19.1841 9.12251 16.7874M17.8018 11.8205C16.4302 9.42376 13.3754 8.59271 10.9787 9.96427C8.582 11.3358 7.75094 14.3906 9.12251 16.7874M17.8018 11.8205L9.12251 16.7874" stroke="white"/>
<path d="M9.36696 5.57404L13.614 3.08639C15.1777 2.17046 17.1706 2.72518 18.0652 4.32538C18.784 5.61096 18.5752 7.18022 17.6546 8.22254M9.36696 5.57404L5.11996 8.0617C3.55626 8.97762 3.0139 11.0174 3.90857 12.6176C4.44648 13.5797 5.3814 14.1638 6.38134 14.2777M9.36696 5.57404L10.5735 7.62698" stroke="white" stroke-linecap="round" stroke-linejoin="round"/>
</svg>
