<svg width="78" height="33" viewBox="0 0 78 33" fill="none" xmlns="http://www.w3.org/2000/svg">
<path d="M28.072 22V12.992H29.096V21.104H34.088V22H28.072ZM38.0364 22.16C36.991 22.16 36.207 21.8507 35.6844 21.232C35.1724 20.6027 34.9164 19.8027 34.9164 18.832C34.9057 17.8507 35.1617 17.0507 35.6844 16.432C36.2177 15.8027 37.0017 15.4827 38.0364 15.472C39.0604 15.472 39.8337 15.7813 40.3564 16.4C40.8897 17.008 41.1564 17.8187 41.1564 18.832C41.1564 19.4613 41.0444 20.0267 40.8204 20.528C40.5964 21.0293 40.255 21.4293 39.7964 21.728C39.3377 22.016 38.751 22.16 38.0364 22.16ZM38.0364 21.264C38.591 21.264 39.0177 21.1413 39.3164 20.896C39.6257 20.6507 39.839 20.3413 39.9564 19.968C40.0844 19.584 40.1484 19.1947 40.1484 18.8C40.1484 18.4053 40.0844 18.016 39.9564 17.632C39.839 17.248 39.6257 16.9333 39.3164 16.688C39.0177 16.4427 38.591 16.32 38.0364 16.32C37.4817 16.32 37.0497 16.4427 36.7404 16.688C36.4417 16.9333 36.2284 17.248 36.1004 17.632C35.983 18.016 35.9244 18.4053 35.9244 18.8C35.9244 19.1947 35.983 19.584 36.1004 19.968C36.2284 20.3413 36.4417 20.6507 36.7404 20.896C37.0497 21.1413 37.4817 21.264 38.0364 21.264ZM44.0049 24.688V23.712H47.2529V20.56H47.2209C47.1995 20.6133 47.1409 20.7253 47.0449 20.896C46.9595 21.0667 46.8209 21.248 46.6289 21.44C46.4475 21.632 46.2075 21.8027 45.9089 21.952C45.6209 22.0907 45.2689 22.16 44.8529 22.16C44.2235 22.16 43.6955 22.016 43.2689 21.728C42.8529 21.4293 42.5382 21.0293 42.3249 20.528C42.1115 20.0267 42.0049 19.4613 42.0049 18.832C42.0049 17.8507 42.2449 17.0507 42.7249 16.432C43.2155 15.8027 43.9302 15.488 44.8689 15.488C45.3062 15.488 45.6689 15.5627 45.9569 15.712C46.2555 15.8507 46.4902 16.0213 46.6609 16.224C46.8422 16.4267 46.9755 16.6133 47.0609 16.784C47.1462 16.9547 47.1995 17.0667 47.2209 17.12H47.2529V15.488H48.3089V23.12C48.3089 23.632 48.2129 24.0213 48.0209 24.288C47.8289 24.5547 47.4822 24.688 46.9809 24.688H44.0049ZM45.0769 21.248C45.7169 21.248 46.2342 21.0347 46.6289 20.608C47.0235 20.1707 47.2209 19.5787 47.2209 18.832C47.2209 18.096 47.0342 17.5147 46.6609 17.088C46.2875 16.6507 45.7915 16.432 45.1729 16.432C44.6609 16.432 44.2449 16.5493 43.9249 16.784C43.6155 17.008 43.3862 17.3013 43.2369 17.664C43.0875 18.0267 43.0129 18.416 43.0129 18.832C43.0129 19.2373 43.0769 19.6267 43.2049 20C43.3435 20.3627 43.5622 20.6613 43.8609 20.896C44.1702 21.1307 44.5755 21.248 45.0769 21.248ZM52.6145 22.16C51.5692 22.16 50.7852 21.8507 50.2625 21.232C49.7505 20.6027 49.4945 19.8027 49.4945 18.832C49.4838 17.8507 49.7398 17.0507 50.2625 16.432C50.7958 15.8027 51.5798 15.4827 52.6145 15.472C53.6385 15.472 54.4118 15.7813 54.9345 16.4C55.4678 17.008 55.7345 17.8187 55.7345 18.832C55.7345 19.4613 55.6225 20.0267 55.3985 20.528C55.1745 21.0293 54.8332 21.4293 54.3745 21.728C53.9158 22.016 53.3292 22.16 52.6145 22.16ZM52.6145 21.264C53.1692 21.264 53.5958 21.1413 53.8945 20.896C54.2038 20.6507 54.4172 20.3413 54.5345 19.968C54.6625 19.584 54.7265 19.1947 54.7265 18.8C54.7265 18.4053 54.6625 18.016 54.5345 17.632C54.4172 17.248 54.2038 16.9333 53.8945 16.688C53.5958 16.4427 53.1692 16.32 52.6145 16.32C52.0598 16.32 51.6278 16.4427 51.3185 16.688C51.0198 16.9333 50.8065 17.248 50.6785 17.632C50.5612 18.016 50.5025 18.4053 50.5025 18.8C50.5025 19.1947 50.5612 19.584 50.6785 19.968C50.8065 20.3413 51.0198 20.6507 51.3185 20.896C51.6278 21.1413 52.0598 21.264 52.6145 21.264ZM59.399 22.16C58.8657 22.16 58.4337 22.064 58.103 21.872C57.783 21.68 57.5377 21.424 57.367 21.104C57.1963 20.7733 57.079 20.416 57.015 20.032C56.9617 19.6373 56.935 19.2427 56.935 18.848V15.488H57.959V18.864C57.959 19.2907 58.0017 19.6853 58.087 20.048C58.1723 20.4107 58.343 20.6987 58.599 20.912C58.8657 21.1253 59.2497 21.232 59.751 21.232C60.231 21.232 60.6043 21.1253 60.871 20.912C61.1483 20.688 61.351 20.4 61.479 20.048C61.607 19.696 61.6817 19.328 61.703 18.944V15.488H62.759V22H61.879L61.703 20.544H61.671C61.6177 20.7253 61.5057 20.944 61.335 21.2C61.1643 21.456 60.919 21.68 60.599 21.872C60.2897 22.064 59.8897 22.16 59.399 22.16ZM65.74 22C65.3453 22 65.068 21.8933 64.908 21.68C64.7587 21.4667 64.684 21.1733 64.684 20.8V16.256H63.66V15.488C64.0013 15.488 64.252 15.4613 64.412 15.408C64.5827 15.344 64.6893 15.1947 64.732 14.96C64.7747 14.7253 64.796 14.3413 64.796 13.808H65.676V15.488H67.18V16.256H65.676V21.168H67.196V22H65.74Z" fill="white"/>
<path d="M2.1216 18.0079C2.13586 14.2759 2.14299 12.41 3.30679 11.255C4.47058 10.1001 6.33654 10.1072 10.0685 10.1215C13.8004 10.1358 15.6664 10.1429 16.8213 11.3067C17.9762 12.4705 17.9691 14.3364 17.9548 18.0684C17.9406 21.8003 17.9334 23.6663 16.7696 24.8212C15.6058 25.9761 13.7399 25.969 10.008 25.9547C6.27603 25.9405 4.41007 25.9333 3.25514 24.7695C2.10021 23.6057 2.10734 21.7398 2.1216 18.0079Z" stroke="#FCFCFC"/>
<path d="M13.372 18.0509L6.70542 18.0254M13.372 18.0509C13.3743 17.4674 11.7165 16.3708 11.2967 15.9596M13.372 18.0509C13.3698 18.6344 11.7037 19.7182 11.2808 20.1262" stroke="white" stroke-linecap="round" stroke-linejoin="round"/>
</svg>
