<svg width="18" height="18" viewBox="0 0 18 18" fill="none" xmlns="http://www.w3.org/2000/svg">
<path d="M16.8186 5.01905L16.41 4.30365C16.101 3.7626 15.9465 3.49208 15.6822 3.38343C15.418 3.27479 15.1184 3.35858 14.5191 3.52616L13.5012 3.80868C13.1187 3.89535 12.7179 3.84383 12.3696 3.6632L12.0895 3.50015C11.791 3.30736 11.5619 3.0239 11.4358 2.69125L11.1607 1.85904C10.9798 1.30833 10.8894 1.03297 10.6722 0.874843C10.4549 0.716714 10.1656 0.715608 9.58701 0.713397L8.65803 0.709847C8.07941 0.707636 7.79009 0.70653 7.57168 0.862995C7.35327 1.01946 7.26073 1.29412 7.07565 1.84343L6.79418 2.67351C6.66551 3.00518 6.43427 3.28689 6.1343 3.47739L5.85295 3.6383C5.50331 3.81626 5.10216 3.86472 4.72033 3.77513L3.70457 3.48483C3.10661 3.31267 2.80763 3.2266 2.54257 3.33322C2.27752 3.43985 2.12095 3.70918 1.80781 4.24785L1.39376 4.9601C1.10024 5.46503 0.953479 5.71749 0.980745 5.98694C1.00801 6.2564 1.20236 6.4742 1.59106 6.90981L2.44658 7.87367C2.65556 8.14033 2.80288 8.6042 2.80129 9.02073C2.7997 9.43752 2.64889 9.90013 2.43785 10.1652L1.57496 11.1225C1.18295 11.5552 0.986938 11.7715 0.957612 12.0407C0.928286 12.3099 1.07312 12.5635 1.36277 13.0707L1.77135 13.786C2.08036 14.3271 2.23488 14.5976 2.49911 14.7063C2.76335 14.8149 3.06298 14.7311 3.66225 14.5635L4.68015 14.281C5.06272 14.1943 5.46356 14.2459 5.81187 14.4266L6.09194 14.5896C6.39038 14.7824 6.61941 15.0659 6.74552 15.3985L7.02067 16.2308C7.20154 16.7815 7.29198 17.0568 7.50919 17.2149C7.7264 17.3731 8.01572 17.3742 8.59434 17.3764L9.52332 17.3799C10.1019 17.3822 10.3913 17.3833 10.6097 17.2268C10.8281 17.0703 10.9206 16.7957 11.1057 16.2464L11.3872 15.4162C11.5158 15.0846 11.747 14.8029 12.0469 14.6124L12.3283 14.4515C12.6779 14.2734 13.0792 14.2249 13.4611 14.3146L14.4768 14.6049C15.0747 14.777 15.3737 14.8631 15.6388 14.7565C15.9038 14.6499 16.0604 14.3805 16.3736 13.8419L16.7876 13.1296L16.7876 13.1296C17.0811 12.6247 17.2279 12.3722 17.2006 12.1028C17.1733 11.8333 16.979 11.6155 16.5903 11.1799L15.7347 10.216C15.5257 9.94934 15.3785 9.48559 15.3801 9.06879C15.3817 8.65227 15.5325 8.18954 15.7435 7.92449L16.6064 6.96719C16.9984 6.53457 17.1944 6.31826 17.2237 6.04902C17.2531 5.77978 17.1082 5.5262 16.8186 5.01905Z" stroke="white" stroke-linecap="round"/>
<path d="M11.9718 9.04938C11.9656 10.6602 10.6548 11.961 9.04401 11.9549C7.43319 11.9487 6.13236 10.6379 6.13851 9.02709C6.14467 7.41627 7.45548 6.11543 9.0663 6.12159C10.6771 6.12774 11.978 7.43856 11.9718 9.04938Z" stroke="white"/>
</svg>
